<?xml version="1.0" encoding="UTF-8"?>
<svg version="1.1" xmlns="http://www.w3.org/2000/svg" width="409" height="395">
<path d="M0 0 C134.97 0 269.94 0 409 0 C409 130.35 409 260.7 409 395 C274.03 395 139.06 395 0 395 C0 264.65 0 134.3 0 0 Z " fill="#FBFCFD" transform="translate(0,0)"/>
<path d="M0 0 C1.69241558 0.92973903 3.4273122 1.78097182 5.1640625 2.625 C9.07055432 4.84553219 12.01610675 6.72071438 13.56542969 11.11181641 C15.42284919 18.68118462 15.8203125 26.2337773 15.8203125 34 C1.9603125 34.33 -11.8996875 34.66 -26.1796875 35 C-20.8996875 38.3 -15.6196875 41.6 -10.1796875 45 C-7.47566518 46.84988013 -4.81208433 48.68567383 -2.1796875 50.625 C-1.58414063 51.05683594 -0.98859375 51.48867187 -0.375 51.93359375 C1.02683973 52.95105807 2.42418154 53.97471633 3.8203125 55 C0.9711167 58.03650597 -1.92372086 60.28440326 -5.44140625 62.50390625 C-6.98550171 63.48423828 -6.98550171 63.48423828 -8.56079102 64.484375 C-9.65190186 65.17015625 -10.7430127 65.8559375 -11.8671875 66.5625 C-13.5556731 67.63279956 -15.24415711 68.70310186 -16.93217468 69.7741394 C-18.61573804 70.84178271 -20.30054176 71.90746928 -21.98535156 72.97314453 C-26.42200155 75.78826744 -30.83481655 78.6393286 -35.2421875 81.5 C-35.95528076 81.96220947 -36.66837402 82.42441895 -37.40307617 82.90063477 C-38.99568577 83.93313081 -40.58776051 84.9664518 -42.1796875 86 C-33.08085368 82.59107964 -23.98994067 79.16122594 -14.89941406 75.73022461 C-12.8399888 74.95314737 -10.78041894 74.17645325 -8.72070312 73.40014648 C-5.71969326 72.26901505 -2.71917536 71.13658708 0.28125 70.00390625 C1.18886078 69.66210831 2.09647156 69.32031036 3.03158569 68.96815491 C4.34312119 68.47260353 4.34312119 68.47260353 5.68115234 67.96704102 C6.53022156 67.64816925 7.37929077 67.32929749 8.25408936 67.00076294 C10.02447203 66.31035791 11.7807248 65.58297858 13.52374268 64.82614136 C14.39585388 64.45030914 15.26796509 64.07447693 16.16650391 63.68725586 C16.94152252 63.34053329 17.71654114 62.99381073 18.51504517 62.63658142 C21.28512339 61.87164613 23.07798584 62.24841634 25.8203125 63 C24.35448746 66.85114088 22.56550954 67.99916152 18.9296875 69.8125 C17.41761719 70.58013672 17.41761719 70.58013672 15.875 71.36328125 C14.78445313 71.90339844 13.69390625 72.44351563 12.5703125 73 C10.27244418 74.164709 7.97558625 75.33141333 5.6796875 76.5 C4.52275391 77.08652344 3.36582031 77.67304688 2.17382812 78.27734375 C-2.66134024 80.76110525 -7.42226254 83.37122 -12.1796875 86 C-20.98952027 90.84845032 -29.88706482 95.50848781 -38.8215332 100.12255859 C-46.97773804 104.34613699 -55.05616996 108.70014677 -63.1015625 113.13085938 C-67.42244428 115.50899354 -71.74645554 117.83780176 -76.1796875 120 C-71.97489348 118.32499336 -67.78256299 116.61989354 -63.59130859 114.91137695 C-55.9994247 111.81887817 -48.40374557 108.73582302 -40.80580711 105.65823078 C-36.21159415 103.79690397 -31.6188836 101.93203431 -27.02929688 100.05932617 C-22.58540526 98.24623094 -18.13787578 96.44235524 -13.68764114 94.64488792 C-11.99177659 93.95801941 -10.29726523 93.26780022 -8.60413742 92.57421303 C-6.24264437 91.60746881 -3.87668427 90.65259111 -1.50927734 89.70043945 C-0.80791153 89.41011337 -0.10654572 89.11978729 0.61607361 88.82066345 C5.47815305 86.88594685 5.47815305 86.88594685 8.8203125 88 C2.8803125 102.85 -3.0596875 117.7 -9.1796875 133 C-5.80739428 130.30216542 -2.87795607 127.81484234 0.11987305 124.78222656 C0.93389084 123.96167786 1.74790863 123.14112915 2.58659363 122.29571533 C3.45133804 121.41953552 4.31608246 120.54335571 5.20703125 119.640625 C7.04999687 117.78502381 8.89309988 115.92955906 10.73632812 114.07421875 C13.63569444 111.15104538 16.53253106 108.22538378 19.42700195 105.29736328 C22.22346422 102.46909252 25.02777712 99.64867055 27.83203125 96.828125 C28.70284836 95.94384827 29.57366547 95.05957153 30.47087097 94.14849854 C31.67771294 92.93658844 31.67771294 92.93658844 32.90893555 91.70019531 C33.6177739 90.98389954 34.32661224 90.26760376 35.05693054 89.52960205 C36.8203125 88 36.8203125 88 38.8203125 88 C39.92962694 89.77190496 40.95653472 91.59561396 41.9453125 93.4375 C44.8460987 98.63448749 47.97553921 102.61930083 52.31640625 106.671875 C55.1378572 111.03962763 54.0160919 115.8423479 53.19140625 120.71875 C48.14712481 141.1491451 38.93221679 158.38639161 24.8203125 174 C24.16289062 174.74121094 23.50546875 175.48242188 22.828125 176.24609375 C4.58375715 195.70414272 -22.9280177 207.35992683 -49.26953125 208.3203125 C-63.07369812 208.6194767 -76.03370909 208.43041261 -89.1796875 204 C-90.29472656 203.63777344 -91.40976563 203.27554688 -92.55859375 202.90234375 C-121.114361 192.76521819 -144.23823272 172.2745209 -157.48217773 145.02563477 C-170.27419013 117.57274345 -171.83310132 87.27625788 -161.6796875 58.75 C-155.73052694 43.47512829 -147.34698255 29.14148094 -135.1796875 18 C-134.38820312 17.20207031 -133.59671875 16.40414062 -132.78125 15.58203125 C-97.41655885 -19.51715922 -42.67352001 -23.88312231 0 0 Z " fill="#FDFDFD" transform="translate(251.1796875,93)"/>
<path d="M0 0 C8.82614073 3.52494856 15.31219115 9.45448495 22 16 C21.67 16.66 21.34 17.32 21 18 C20.45730469 17.57847656 19.91460937 17.15695313 19.35546875 16.72265625 C18.64003906 16.17480469 17.92460937 15.62695312 17.1875 15.0625 C16.47980469 14.51722656 15.77210938 13.97195312 15.04296875 13.41015625 C11.952044 11.27664988 9.2345268 10.80515347 5.5625 10.6875 C4.80066406 10.65011719 4.03882813 10.61273438 3.25390625 10.57421875 C0.09915729 11.17017653 -0.99167401 12.54350021 -3 15 C-7.98874642 23.53014048 -8.91901346 36.4440564 -6.48901367 46.01196289 C-5.75355413 49.00190149 -5.94109754 51.93707195 -6 55 C-3.36 54.67 -0.72 54.34 2 54 C0.35 51.69 -1.3 49.38 -3 47 C-2.25 45.0625 -2.25 45.0625 -1 43 C1.078125 42.37109375 1.078125 42.37109375 3 42 C4.33905267 43.7873962 5.67109066 45.58004953 7 47.375 C7.7425 48.37273437 8.485 49.37046875 9.25 50.3984375 C11 53 11 53 11 55 C26.51 55 42.02 55 58 55 C51.25857886 62.86499133 51.25857886 62.86499133 47.81469727 66.20361328 C47.05113419 66.94773468 46.28757111 67.69185608 45.50086975 68.45852661 C44.6974968 69.23791595 43.89412384 70.0173053 43.06640625 70.8203125 C41.34887021 72.50575751 39.63209503 74.19197816 37.91601562 75.87890625 C35.2278812 78.51742953 32.53562015 81.15104158 29.83032227 83.77197266 C27.20776669 86.3161334 24.6044957 88.8787283 22.00390625 91.4453125 C21.18636368 92.22875031 20.36882111 93.01218811 19.52650452 93.81936646 C18.78500656 94.55718353 18.04350861 95.29500061 17.27954102 96.05517578 C16.62035172 96.69802521 15.96116241 97.34087463 15.28199768 98.00320435 C13.73541673 99.97002412 13.73541673 99.97002412 14.20152283 102.58981323 C17.5738836 112.76921421 28.6156635 124.71045585 37.6875 130.1875 C41.5761867 132.07354734 44.65579449 132.66833931 49 132 C52.21339684 130.87904761 53.57179805 129.78923496 55.1953125 126.796875 C56.20433728 124.55302968 57.13574877 122.30306053 58 120 C59.82193872 125.46581615 57.42375232 131.87380342 55.08203125 137.015625 C52.98185603 140.41019393 50.67414159 142.49694208 47 144 C40.59492482 144.73500863 36.31932209 143.62104311 31 140 C21.01480635 132.05392207 11.66501643 122.55219037 6 111 C6 110.34 6 109.68 6 109 C-0.13482891 114.20125361 -5.86346907 119.73072297 -11.53125 125.43359375 C-12.40777222 126.31153091 -13.28429443 127.18946808 -14.18737793 128.0940094 C-16.96062796 130.87281496 -19.73036282 133.65509397 -22.5 136.4375 C-24.39010805 138.33319865 -26.28101518 140.22809783 -28.171875 142.12304688 C-32.78391004 146.74605189 -37.39307141 151.37190657 -42 156 C-43 154 -43 154 -42.10717773 151.25708008 C-41.63739502 150.10618896 -41.1676123 148.95529785 -40.68359375 147.76953125 C-40.4300563 147.1420549 -40.17651886 146.51457855 -39.91529846 145.86808777 C-39.09658782 143.84653626 -38.26730091 141.82952115 -37.4375 139.8125 C-36.90488242 138.50354654 -36.37297391 137.19430432 -35.84179688 135.88476562 C-34.77670173 133.26112 -33.70774948 130.6390945 -32.63623047 128.01806641 C-30.05480851 121.69320325 -27.52915092 115.3459006 -25 109 C-33.52931207 111.69274565 -41.7887228 115.02447389 -50.0859375 118.34765625 C-51.63525468 118.96646962 -53.18462282 119.58515542 -54.73403931 120.20372009 C-57.96384966 121.49386619 -61.19287816 122.78594557 -64.42138672 124.0793457 C-68.55903766 125.73671579 -72.69886558 127.38857049 -76.83931541 129.03893375 C-80.03154965 130.31216254 -83.22249703 131.5885908 -86.41307449 132.86596489 C-87.93967982 133.47663768 -89.46671362 134.08624049 -90.99418259 134.69474983 C-93.12294744 135.5432849 -95.24991085 136.39618627 -97.37646484 137.25024414 C-98.58619965 137.7341713 -99.79593445 138.21809845 -101.04232788 138.71669006 C-104.1041701 139.941125 -104.1041701 139.941125 -107 142 C-109.1875 141.625 -109.1875 141.625 -111 141 C-110.23671387 140.60844727 -109.47342773 140.21689453 -108.68701172 139.81347656 C-95.08098666 132.82588222 -81.50852064 125.80263635 -68.11083984 118.42089844 C-61.29339668 114.67587638 -54.41068208 111.06967218 -47.5 107.5 C-39.20159972 103.21146105 -30.94909984 98.85073099 -22.75 94.375 C-21.83927734 93.87806641 -20.92855469 93.38113281 -19.99023438 92.86914062 C-17.65486456 91.58868311 -15.32627506 90.2968819 -13 89 C-11.97390625 88.43539062 -10.9478125 87.87078125 -9.890625 87.2890625 C-9.26671875 86.86367187 -8.6428125 86.43828125 -8 86 C-8 85.34 -8 84.68 -8 84 C-13.23931831 84.56289847 -17.7818774 85.84547713 -22.6796875 87.80859375 C-23.76319489 88.2325946 -23.76319489 88.2325946 -24.86859131 88.66516113 C-27.20688558 89.58226925 -29.5408495 90.50990292 -31.875 91.4375 C-33.48719771 92.07108068 -35.09966733 92.70396989 -36.71240234 93.33618164 C-44.11246592 96.24306114 -51.49556017 99.19001498 -58.859375 102.1875 C-60.01453613 102.65615479 -61.16969727 103.12480957 -62.35986328 103.60766602 C-64.49682331 104.47801305 -66.63076236 105.35582386 -68.76123047 106.24194336 C-70.16719482 106.81634155 -70.16719482 106.81634155 -71.6015625 107.40234375 C-72.40932129 107.73741943 -73.21708008 108.07249512 -74.04931641 108.41772461 C-76 109 -76 109 -78 108 C-66.881882 100.78163453 -55.73042854 93.61667381 -44.55688477 86.484375 C-39.67499151 83.36537696 -34.80112476 80.24221033 -30 77 C-32.66116705 74.19717675 -35.30170862 71.98740264 -38.5546875 69.90625 C-39.41707031 69.35066406 -40.27945313 68.79507813 -41.16796875 68.22265625 C-42.06128906 67.65417969 -42.95460938 67.08570313 -43.875 66.5 C-45.64338944 65.36483298 -47.41162244 64.22942219 -49.1796875 63.09375 C-50.00952148 62.56136719 -50.83935547 62.02898437 -51.69433594 61.48046875 C-52.45520508 60.99191406 -53.21607422 60.50335938 -54 60 C-54.65000977 59.58363281 -55.30001953 59.16726562 -55.96972656 58.73828125 C-57.33111598 57.85253875 -58.66922362 56.93110426 -60 56 C-60 55.67 -60 55.34 -60 55 C-45.81 55 -31.62 55 -17 55 C-17.99 49.555 -17.99 49.555 -19 44 C-19.15903414 41.84388711 -19.26065211 39.68149562 -19.265625 37.51953125 C-19.26949219 35.86727539 -19.26949219 35.86727539 -19.2734375 34.18164062 C-19.26570313 33.06982422 -19.25796875 31.95800781 -19.25 30.8125 C-19.26160156 29.12737305 -19.26160156 29.12737305 -19.2734375 27.40820312 C-19.25276686 18.60767871 -18.79250327 11.07972622 -13 4 C-8.61705082 0.29884291 -5.70324866 -0.9349588 0 0 Z " fill="#4DC5EC" transform="translate(284,72)"/>
<path d="M0 0 C3.32321118 1.83444079 3.32321118 1.83444079 6.2734375 2.9375 C8.76304687 4.02260215 9.98289191 4.57394724 11.49609375 6.84375 C12.15154414 11.93441466 11.95790621 16.74457076 11.49609375 21.84375 C11.16609375 21.84375 10.83609375 21.84375 10.49609375 21.84375 C10.19058594 20.25046875 10.19058594 20.25046875 9.87890625 18.625 C8.64461817 14.35758312 6.10205909 12.51691485 2.37109375 10.34375 C1.44490234 9.77974487 1.44490234 9.77974487 0.5 9.2043457 C-24.48221824 -5.58034633 -55.02238652 -11.90488697 -83.48535156 -4.69970703 C-101.78114474 0.22608344 -119.81408824 7.7590057 -133.23828125 21.63671875 C-134.50390625 22.84375 -134.50390625 22.84375 -136.50390625 22.84375 C-136.75011719 23.41351563 -136.99632812 23.98328125 -137.25 24.5703125 C-138.71075944 27.21879223 -140.46335174 29.04522276 -142.56640625 31.21875 C-161.93071834 52.47908622 -170.54970279 80.96909654 -169.63574219 109.38085938 C-168.0016849 139.90747035 -153.87622685 166.57398079 -131.81640625 187.40625 C-117.92127782 199.56448738 -101.37526807 207.52926791 -83.50390625 211.84375 C-82.87371582 212.02035156 -82.24352539 212.19695312 -81.59423828 212.37890625 C-74.49165585 214.22330512 -67.43360933 214.22885904 -60.12890625 214.21875 C-59.46672089 214.21820618 -58.80453552 214.21766235 -58.12228394 214.21710205 C-28.80113763 214.10662464 -3.04037801 203.70007148 18.49609375 183.84375 C19.47255859 182.98910156 19.47255859 182.98910156 20.46875 182.1171875 C38.69301415 165.31467446 48.15124769 140.87382827 51.49609375 116.84375 C53.80609375 118.82375 56.11609375 120.80375 58.49609375 122.84375 C53.33687618 154.34213098 36.68199069 181.85999705 10.6875 200.68359375 C1.15679758 207.13460775 -8.68079473 212.31969924 -19.55859375 216.14697266 C-20.83251971 216.60327094 -22.0988673 217.081452 -23.35546875 217.58349609 C-48.09793499 227.39895668 -81.02458634 223.76390983 -105.01171875 213.47265625 C-119.23221745 206.83960484 -131.09372917 198.58505463 -142.50390625 187.84375 C-143.1071875 187.30492187 -143.71046875 186.76609375 -144.33203125 186.2109375 C-158.51684957 173.02038214 -168.66631803 153.40402231 -173.50390625 134.84375 C-173.79587891 133.72492432 -173.79587891 133.72492432 -174.09375 132.58349609 C-181.91467064 101.38287886 -176.70953644 69.55114337 -160.50390625 41.84375 C-155.61210661 34.18154501 -149.74629897 27.42890305 -143.50390625 20.84375 C-142.69824219 19.98523438 -141.89257812 19.12671875 -141.0625 18.2421875 C-135.64568858 12.63040478 -130.11488816 7.97796803 -123.50390625 3.84375 C-122.45460937 3.18503906 -121.4053125 2.52632812 -120.32421875 1.84765625 C-83.06072022 -20.82374381 -37.97662049 -20.37299996 0 0 Z " fill="#B2B3B3" transform="translate(253.50390625,86.15625)"/>
<path d="M0 0 C1.67643038 3.26591822 3.33943344 6.53849107 5 9.8125 C5.47695313 10.74126953 5.95390625 11.67003906 6.4453125 12.62695312 C7.12207031 13.9659668 7.12207031 13.9659668 7.8125 15.33203125 C8.23144531 16.15421143 8.65039062 16.9763916 9.08203125 17.82348633 C10 20 10 20 10 23 C8.25366211 25.10710144 8.25366211 25.10710144 5.77734375 27.56323242 C4.85638916 28.48396042 3.93543457 29.40468842 2.98657227 30.35331726 C1.97037325 31.35419528 0.95401196 32.35490856 -0.0625 33.35546875 C-1.09448321 34.38185744 -2.12580655 35.40891 -3.15649414 36.43659973 C-5.87238096 39.14102652 -8.59715601 41.83632431 -11.32385254 44.52984619 C-14.10411734 47.27943514 -16.87591976 50.03752533 -19.6484375 52.79492188 C-25.09069148 58.20499126 -30.54235911 63.60544854 -36 69 C-37 67 -37 67 -36.10717773 64.25708008 C-35.63739502 63.10618896 -35.1676123 61.95529785 -34.68359375 60.76953125 C-34.30328758 59.82831673 -34.30328758 59.82831673 -33.91529846 58.86808777 C-33.09658782 56.84653626 -32.26730091 54.82952115 -31.4375 52.8125 C-30.90488242 51.50354654 -30.37297391 50.19430432 -29.84179688 48.88476562 C-28.77670173 46.26112 -27.70774948 43.6390945 -26.63623047 41.01806641 C-24.05480851 34.69320325 -21.52915092 28.3459006 -19 22 C-27.52931207 24.69274565 -35.7887228 28.02447389 -44.0859375 31.34765625 C-45.63525468 31.96646962 -47.18462282 32.58515542 -48.73403931 33.20372009 C-51.96384966 34.49386619 -55.19287816 35.78594557 -58.42138672 37.0793457 C-62.55903766 38.73671579 -66.69886558 40.38857049 -70.83931541 42.03893375 C-74.03154965 43.31216254 -77.22249703 44.5885908 -80.41307449 45.86596489 C-81.93967982 46.47663768 -83.46671362 47.08624049 -84.99418259 47.69474983 C-87.12294744 48.5432849 -89.24991085 49.39618627 -91.37646484 50.25024414 C-92.58619965 50.7341713 -93.79593445 51.21809845 -95.04232788 51.71669006 C-98.1041701 52.941125 -98.1041701 52.941125 -101 55 C-103.1875 54.625 -103.1875 54.625 -105 54 C-104.23671387 53.60844727 -103.47342773 53.21689453 -102.68701172 52.81347656 C-89.08098666 45.82588222 -75.50852064 38.80263635 -62.11083984 31.42089844 C-54.26134679 27.10894102 -46.31853347 22.98854482 -38.36157227 18.87915039 C-28.51539494 13.7801959 -18.78311263 8.48208164 -9.0769043 3.12231445 C-8.39152588 2.75195068 -7.70614746 2.38158691 -7 2 C-6.31268799 1.62125732 -5.62537598 1.24251465 -4.91723633 0.85229492 C-3 0 -3 0 0 0 Z " fill="#030303" transform="translate(278,159)"/>
<path d="M0 0 C0.99 0.33 1.98 0.66 3 1 C2.34 1 1.68 1 1 1 C1.495 2.485 1.495 2.485 2 4 C2.99 3.67 3.98 3.34 5 3 C5.63490176 4.62115692 6.25725792 6.24722707 6.875 7.875 C7.22304688 8.77992188 7.57109375 9.68484375 7.9296875 10.6171875 C10.51047478 18.77398234 11.34208112 26.59380461 11.3125 35.125 C11.32861328 36.06214844 11.34472656 36.99929687 11.36132812 37.96484375 C11.36581526 44.38145213 10.91853427 50.53274671 6.59887695 55.66455078 C3.90089524 57.91801848 1.44314264 57.88522858 -2 58 C-7.41114808 56.2607024 -11.51537628 53.38634853 -16 50 C-16 51.65 -16 53.3 -16 55 C-22.17596311 49.01118729 -28.35889594 42.8890588 -32 35 C-31.62990903 31.66047958 -30.39319484 30.02404672 -28.04077148 27.70019531 C-27.4202037 27.07985413 -26.79963593 26.45951294 -26.16026306 25.82037354 C-25.48733719 25.16293152 -24.81441132 24.5054895 -24.12109375 23.828125 C-23.4344313 23.1457074 -22.74776886 22.46328979 -22.04029846 21.76019287 C-19.84630585 19.58298804 -17.64211084 17.41644719 -15.4375 15.25 C-13.94788366 13.77543029 -12.4589428 12.30017787 -10.97070312 10.82421875 C-7.32159192 7.20817824 -3.66329621 3.60166712 0 0 Z " fill="#FAF9FB" transform="translate(329,140)"/>
<path d="M0 0 C20.46 0 40.92 0 62 0 C55.25 7.875 55.25 7.875 51.83056641 11.28295898 C51.07023102 12.04321884 50.30989563 12.8034787 49.52651978 13.58677673 C48.72628387 14.38185135 47.92604797 15.17692596 47.1015625 15.99609375 C46.26660248 16.82963882 45.43164246 17.6631839 44.57138062 18.52198792 C41.92494152 21.16286524 39.27503241 23.80022896 36.625 26.4375 C34.82138357 28.23609649 33.01799575 30.03492227 31.21484375 31.83398438 C26.81253739 36.22531248 22.40738286 40.61376729 18 45 C14.74722599 41.98366616 13.09063642 38.47668363 11.25 34.5 C10.92128906 33.82324219 10.59257812 33.14648438 10.25390625 32.44921875 C7.87788639 27.36634083 7.87788639 27.36634083 9 24 C11.72265625 22.39453125 11.72265625 22.39453125 15.0625 20.8125 C16.16722656 20.28269531 17.27195312 19.75289062 18.41015625 19.20703125 C19.26480469 18.80871094 20.11945313 18.41039062 21 18 C20.33613281 18.20496094 19.67226563 18.40992188 18.98828125 18.62109375 C18.10527344 18.89050781 17.22226562 19.15992188 16.3125 19.4375 C15.44238281 19.70433594 14.57226562 19.97117188 13.67578125 20.24609375 C11.12883152 20.96370149 8.59609697 21.49599583 6 22 C4.99553896 18.7096777 3.99719244 15.41753178 3 12.125 C2.71382813 11.18785156 2.42765625 10.25070313 2.1328125 9.28515625 C1.86210937 8.38925781 1.59140625 7.49335938 1.3125 6.5703125 C1.06113281 5.74289551 0.80976563 4.91547852 0.55078125 4.06298828 C0 2 0 2 0 0 Z " fill="#010101" transform="translate(279,128)"/>
<path d="M0 0 C13.86 0 27.72 0 42 0 C45.4375 11.3125 45.4375 11.3125 46.51733398 14.8684082 C46.79907471 15.79484131 47.08081543 16.72127441 47.37109375 17.67578125 C47.65911865 18.62364502 47.94714355 19.57150879 48.24389648 20.5480957 C48.80651627 22.37256795 49.39624177 24.18872531 50 26 C37.821001 31.22874746 25.41632966 35.88563552 13.04492188 40.63427734 C10.15442585 41.74441629 7.26459841 42.85627697 4.375 43.96875 C3.45702637 44.32122803 2.53905273 44.67370605 1.59326172 45.03686523 C-4.32227511 47.31866471 -10.16439897 49.71370156 -15.953125 52.30273438 C-16.62859375 52.53283203 -17.3040625 52.76292969 -18 53 C-18.66 52.67 -19.32 52.34 -20 52 C-8.881882 44.78163453 2.26957146 37.61667381 13.44311523 30.484375 C18.32500849 27.36537696 23.19887524 24.24221033 28 21 C25.32129913 18.17146312 22.66878066 15.97961519 19.375 13.90625 C18.50359375 13.35066406 17.6321875 12.79507813 16.734375 12.22265625 C15.83203125 11.65417969 14.9296875 11.08570313 14 10.5 C12.20532033 9.36935181 10.41354408 8.23407914 8.625 7.09375 C7.83351562 6.59552734 7.04203125 6.09730469 6.2265625 5.58398438 C4 4 4 4 0 0 Z " fill="#030303" transform="translate(226,128)"/>
<path d="M0 0 C8.82614073 3.52494856 15.31219115 9.45448495 22 16 C21.67 16.66 21.34 17.32 21 18 C20.45730469 17.57847656 19.91460937 17.15695313 19.35546875 16.72265625 C18.28232422 15.90087891 18.28232422 15.90087891 17.1875 15.0625 C16.12595703 14.24458984 16.12595703 14.24458984 15.04296875 13.41015625 C11.952044 11.27664988 9.2345268 10.80515347 5.5625 10.6875 C4.80066406 10.65011719 4.03882813 10.61273438 3.25390625 10.57421875 C0.09915729 11.17017653 -0.99167401 12.54350021 -3 15 C-8.66366287 24.68416429 -8.04195491 37.09092986 -6.41796875 47.859375 C-6 51 -6 51 -7 54 C-7.598125 53.79375 -8.19625 53.5875 -8.8125 53.375 C-11.28450846 52.69328085 -11.28450846 52.69328085 -14 55 C-14.99 55 -15.98 55 -17 55 C-18.79287721 46.87589753 -19.30777889 39.11821513 -19.25 30.8125 C-19.25773437 29.68908203 -19.26546875 28.56566406 -19.2734375 27.40820312 C-19.25276686 18.60767871 -18.79250327 11.07972622 -13 4 C-8.61705082 0.29884291 -5.70324866 -0.9349588 0 0 Z " fill="#4CC6EE" transform="translate(284,72)"/>
<path d="M0 0 C1.44526736 1.73548169 2.8087222 3.53975963 4.125 5.375 C5.21167969 6.87160156 5.21167969 6.87160156 6.3203125 8.3984375 C8 11 8 11 8 13 C23.51 13 39.02 13 55 13 C55 13.33 55 13.66 55 14 C34.21 14 13.42 14 -8 14 C-5.03 23.405 -5.03 23.405 -2 33 C-2 33.99 -2 34.98 -2 36 C-1.09636719 35.62746094 -0.19273437 35.25492188 0.73828125 34.87109375 C1.91777344 34.39800781 3.09726562 33.92492187 4.3125 33.4375 C6.07013672 32.72400391 6.07013672 32.72400391 7.86328125 31.99609375 C11 31 11 31 14 32 C11.89983377 33.17441535 9.79541245 34.33964012 7.6875 35.5 C7.09259766 35.83386719 6.49769531 36.16773438 5.88476562 36.51171875 C3.04171156 38.06825114 1.29339012 39 -2 39 C-2 39.66 -2 40.32 -2 41 C-3.32 41 -4.64 41 -6 41 C-7.67225729 41.30404678 -9.34080104 41.63128912 -11 42 C-13.1171402 36.65143528 -14.94190741 31.22889436 -16.6875 25.75 C-16.91397217 25.05261719 -17.14044434 24.35523438 -17.3737793 23.63671875 C-18.44742061 20.22473351 -19 17.61547378 -19 14 C-33.19 14.33 -47.38 14.66 -62 15 C-62.33 14.34 -62.66 13.68 -63 13 C-47.82 13 -32.64 13 -17 13 C-16.67 12.34 -16.34 11.68 -16 11 C-15.34 10.67 -14.68 10.34 -14 10 C-11.875 10.9375 -11.875 10.9375 -10 12 C-9.67 11.01 -9.34 10.02 -9 9 C-9 10.32 -9 11.64 -9 13 C-6.36 12.67 -3.72 12.34 -1 12 C-2.65 9.69 -4.3 7.38 -6 5 C-3.74193548 0 -3.74193548 0 0 0 Z " fill="#57BADB" transform="translate(287,114)"/>
<path d="M0 0 C7.2425327 8.17638362 7.37913894 22.22301059 7.4375 32.5625 C7.4523645 33.93510986 7.4523645 33.93510986 7.4675293 35.33544922 C7.38811705 41.57987985 6.7853029 47.68647511 2.59936523 52.66625977 C-0.09974074 54.91709413 -2.55744422 54.88524814 -6 55 C-11.35389172 53.30929735 -14.90748875 50.69324186 -19 47 C-18.01 46.505 -18.01 46.505 -17 46 C-16.34 46.33 -15.68 46.66 -15 47 C-10.01009525 47.50034663 -10.01009525 47.50034663 -5.6875 45.3125 C-2.04733183 40.32412139 -1.64956434 35.67091488 -1.6875 29.625 C-1.68516357 28.83714111 -1.68282715 28.04928223 -1.68041992 27.23754883 C-1.76437206 20.55563009 -2.99313386 14.54115448 -4.83203125 8.13671875 C-5 5 -5 5 -2.57421875 2.08203125 C-1.72472656 1.39496094 -0.87523437 0.70789063 0 0 Z " fill="#5A14E8" transform="translate(333,143)"/>
<path d="M0 0 C11.24976337 5.50520335 19.06258732 17.32986706 25 28 C25 28.66 25 29.32 25 30 C21.6432288 30.73238644 20.19763959 31.04640365 17 30 C14.39785737 27.2424393 12.2944612 24.24648521 10.1640625 21.125 C6.164825 15.3499278 1.73673574 10.43669165 -5 8 C-8.08559301 7.33278464 -8.08559301 7.33278464 -11 8 C-13.3091666 10.30302869 -13.3091666 10.30302869 -15 13 C-15.66 13.66 -16.32 14.32 -17 15 C-16.65080186 8.36523542 -15.27400642 5.10795889 -11 0 C-7.48577159 -1.7571142 -3.7436813 -0.79082876 0 0 Z " fill="#5A14E4" transform="translate(300,93)"/>
<path d="M0 0 C5.44438112 8.16657168 4.20762444 18.59922669 4 28 C4.66 28.33 5.32 28.66 6 29 C5.34 30.98 4.68 32.96 4 35 C-2.17596311 29.01118729 -8.35889594 22.8890588 -12 15 C-11.85989186 10.59126381 -8.42917471 8.09601264 -5.4375 5.25 C-4.91736328 4.74339844 -4.39722656 4.23679688 -3.86132812 3.71484375 C-2.58089916 2.46965595 -1.29132446 1.23388498 0 0 Z " fill="#B3B2B3" transform="translate(309,160)"/>
<path d="M0 0 C2.51044048 1.15866484 4.52108142 2.39081106 6.75 4.0625 C10.87587144 6.52215412 13.20231889 6.92384633 18 7 C20.97160035 5.64339984 22.70283441 4.29716559 25 2 C25 5 25 5 24 7 C25.32 6.67 26.64 6.34 28 6 C26.07949482 10.5485649 24.65035158 13.09758344 20 15 C13.88273453 16.07951744 10.24978291 13.75956845 5.234375 10.60546875 C3.23616648 9.16969305 1.54706196 7.9101987 0 6 C-0.1875 2.8125 -0.1875 2.8125 0 0 Z " fill="#F1F5F8" transform="translate(313,190)"/>
<path d="M0 0 C1.44526736 1.73548169 2.8087222 3.53975963 4.125 5.375 C4.84945313 6.37273437 5.57390625 7.37046875 6.3203125 8.3984375 C8 11 8 11 8 13 C23.51 13 39.02 13 55 13 C55 13.33 55 13.66 55 14 C34.21 14 13.42 14 -8 14 C-8 13.67 -8 13.34 -8 13 C-4.535 12.505 -4.535 12.505 -1 12 C-2.65 9.69 -4.3 7.38 -6 5 C-3.74193548 0 -3.74193548 0 0 0 Z " fill="#A7A7A7" transform="translate(287,114)"/>
<path d="M0 0 C0.33 0 0.66 0 1 0 C1 0.99 1 1.98 1 3 C1.70237628 8.45177776 6.07140626 11.55465014 10 15 C8.68 16.65 7.36 18.3 6 20 C6.639375 21.11375 7.27875 22.2275 7.9375 23.375 C9.00526106 25.23497087 10.04071468 27.08142937 11 29 C8.03 29 5.06 29 2 29 C-0.22742117 19.25503237 -0.19666464 9.93156436 0 0 Z " fill="#A7BDC3" transform="translate(276,98)"/>
<path d="M0 0 C0.33 0 0.66 0 1 0 C1.08166849 3.00056084 1.14081551 5.9988539 1.1875 9 C1.21263672 9.83917969 1.23777344 10.67835938 1.26367188 11.54296875 C1.33624502 17.78425897 0.79135313 23.67818767 -3.40161133 28.66796875 C-6.10046799 30.91708467 -8.55876672 30.88529222 -12 31 C-17.35389172 29.30929735 -20.90748875 26.69324186 -25 23 C-24.34 22.67 -23.68 22.34 -23 22 C-22.34 22.33 -21.68 22.66 -21 23 C-18.70075503 23.27024708 -16.40198513 23.44497841 -14.09375 23.62109375 C-12 24 -12 24 -10 26 C-9.34 25.34 -8.68 24.68 -8 24 C-7.34 23.34 -6.68 22.68 -6 22 C-4.68 22 -3.36 22 -2 22 C-1.2204542 19.19252545 -0.8289851 16.57970192 -0.68359375 13.671875 C-0.64169922 12.87265625 -0.59980469 12.0734375 -0.55664062 11.25 C-0.51732422 10.425 -0.47800781 9.6 -0.4375 8.75 C-0.39431641 7.90953125 -0.35113281 7.0690625 -0.30664062 6.203125 C-0.20091457 4.13559329 -0.09998705 2.06781719 0 0 Z " fill="#5510DD" transform="translate(339,167)"/>
<path d="M0 0 C3.23518553 3.23518553 2.97142304 6.99637714 3.09765625 11.4296875 C3.08605469 12.56664062 3.07445312 13.70359375 3.0625 14.875 C3.05347656 16.02742188 3.04445313 17.17984375 3.03515625 18.3671875 C3.02355469 19.23601562 3.01195312 20.10484375 3 21 C-1.00055301 17.33282641 -3.66825595 13.93253549 -6 9 C-6.09973571 5.60898595 -4.79947956 4.78480733 -2.4375 2.25 C-1.633125 1.5075 -0.82875 0.765 0 0 Z " fill="#F5F9F9" transform="translate(303,166)"/>
<path d="M0 0 C0.99 1.32 1.98 2.64 3 4 C6.9898809 3.37658111 10.43815415 2.09043267 14.1328125 0.5234375 C16 0 16 0 19 1 C16.89983377 2.17441535 14.79541245 3.33964012 12.6875 4.5 C12.09259766 4.83386719 11.49769531 5.16773438 10.88476562 5.51171875 C8.04171156 7.06825114 6.29339012 8 3 8 C3 8.66 3 9.32 3 10 C1.68 10 0.36 10 -1 10 C-2.67225729 10.30404678 -4.34080104 10.63128912 -6 11 C-7.60031344 7.79937313 -6.03173691 5.27728194 -5 2 C-3.68 1.67 -2.36 1.34 -1 1 C-0.67 1.99 -0.34 2.98 0 4 C0 2.68 0 1.36 0 0 Z " fill="#4DC6EE" transform="translate(282,145)"/>
<path d="M0 0 C6.11774896 -0.49940808 9.02495953 0.75099398 14 4 C14 5.32 14 6.64 14 8 C4.48387097 8.32258065 4.48387097 8.32258065 1 6 C0.1875 2.875 0.1875 2.875 0 0 Z " fill="#48C6EE" transform="translate(279,73)"/>
<path d="M0 0 C4.82021024 3.30528702 7.10402528 7.03547192 10 12 C7.03 12 4.06 12 1 12 C0.67 8.04 0.34 4.08 0 0 Z " fill="#F7FBFB" transform="translate(277,115)"/>
<path d="M0 0 C0.33 0.99 0.66 1.98 1 3 C1.61875 3.12375 2.2375 3.2475 2.875 3.375 C5 4 5 4 6.75 6.375 C8 9 8 9 8 12 C6.02 12.33 4.04 12.66 2 13 C2.0928125 11.824375 2.0928125 11.824375 2.1875 10.625 C2.125625 9.75875 2.06375 8.8925 2 8 C1.01 7.34 0.02 6.68 -1 6 C-0.67 4.02 -0.34 2.04 0 0 Z " fill="#5E17EB" transform="translate(313,108)"/>
<path d="M0 0 C1.21343812 3.64031437 0.6723256 5.31069759 -0.25 9 C-0.50265625 10.051875 -0.7553125 11.10375 -1.015625 12.1875 C-1.98292872 14.95122492 -2.75792705 16.18618818 -5 18 C-5 16.68 -5 15.36 -5 14 C-6.32 13.34 -7.64 12.68 -9 12 C-8.2575 11.690625 -7.515 11.38125 -6.75 11.0625 C-2.84571411 8.13428559 -1.6812037 4.48007912 0 0 Z " fill="#52C5E9" transform="translate(342,192)"/>
<path d="M0 0 C4.69159716 3.38772897 9.0299782 6.78185183 13 11 C12.67 11.66 12.34 12.32 12 13 C11.52691406 12.59007813 11.05382812 12.18015625 10.56640625 11.7578125 C5.56509586 7.6826707 1.38578034 5.85735014 -5 5 C-3.625 3.5 -3.625 3.5 -2 2 C-1.34 2 -0.68 2 0 2 C0 1.34 0 0.68 0 0 Z " fill="#6CC9E4" transform="translate(293,77)"/>
<path d="M0 0 C2.9555377 2.75170751 5.11563315 5.41970299 7 9 C7 9.66 7 10.32 7 11 C4.36 11 1.72 11 -1 11 C-1.33 10.01 -1.66 9.02 -2 8 C-0.35 8 1.3 8 3 8 C2.505 7.05125 2.01 6.1025 1.5 5.125 C0 2 0 2 0 0 Z " fill="#5611D5" transform="translate(318,112)"/>
<path d="M0 0 C1.98 1.65 3.96 3.3 6 5 C5.34 6.65 4.68 8.3 4 10 C2.68 9.67 1.36 9.34 0 9 C0 6.03 0 3.06 0 0 Z " fill="#B0B0AF" transform="translate(277,105)"/>
<path d="M0 0 C2.88437779 1.29299694 4.87219421 2.65941363 7 5 C6.34 6.98 5.68 8.96 5 11 C3.35 9.35 1.7 7.7 0 6 C0.66 5.67 1.32 5.34 2 5 C2 4.01 2 3.02 2 2 C1.34 2 0.68 2 0 2 C0 1.34 0 0.68 0 0 Z " fill="#A29FB7" transform="translate(308,184)"/>
<path d="M0 0 C-2.12232979 1.17176518 -4.24757791 2.33754785 -6.375 3.5 C-6.97828125 3.83386719 -7.5815625 4.16773438 -8.203125 4.51171875 C-12.7734375 7 -12.7734375 7 -15 7 C-15 6.01 -15 5.02 -15 4 C-13.06767179 3.13419713 -11.12892806 2.28270059 -9.1875 1.4375 C-8.10855469 0.96183594 -7.02960938 0.48617187 -5.91796875 -0.00390625 C-3 -1 -3 -1 0 0 Z " fill="#CBCDCD" transform="translate(301,146)"/>
<path d="M0 0 C3.125 0.375 3.125 0.375 6 1 C6.33 2.32 6.66 3.64 7 5 C5.02 5 3.04 5 1 5 C0.34 6.32 -0.32 7.64 -1 9 C-1.625 5.625 -1.625 5.625 -2 2 C-1.34 1.34 -0.68 0.68 0 0 Z " fill="#6526E2" transform="translate(331,151)"/>
<path d="M0 0 C5.02072539 3.69948187 5.02072539 3.69948187 7 6 C6.9375 9.375 6.9375 9.375 6 12 C5.67 12 5.34 12 5 12 C5 10.02 5 8.04 5 6 C3.02463255 6.34786708 3.02463255 6.34786708 1 7 C0.67 7.66 0.34 8.32 0 9 C0 6.03 0 3.06 0 0 Z " fill="#ABB7B9" transform="translate(305,203)"/>
<path d="M0 0 C2.5625 1.5625 2.5625 1.5625 4 3 C3.01 3.33 2.02 3.66 1 4 C0.34 3.34 -0.32 2.68 -1 2 C-3.68839385 1.73008094 -6.29141936 1.91262643 -9 2 C-9.33 2.66 -9.66 3.32 -10 4 C-10.99 3.34 -11.98 2.68 -13 2 C-9.22448897 -2.10381633 -4.99144773 -1.23641366 0 0 Z " fill="#6325DA" transform="translate(300,93)"/>
<path d="M0 0 C0.33 0.66 0.66 1.32 1 2 C1.66 2 2.32 2 3 2 C1.47291037 5.43595166 -0.59927045 8.11912454 -3 11 C-2.25 3.375 -2.25 3.375 0 0 Z " fill="#6934D4" transform="translate(286,97)"/>
<path d="M0 0 C2.97 0 5.94 0 9 0 C8.34 1.32 7.68 2.64 7 4 C3.38144425 3.37611108 2.8290723 2.8290723 0 0 Z " fill="#5E1BE1" transform="translate(317,192)"/>
<path d="M0 0 C1.09898702 3.29696105 0.87124444 4.40494903 0.0625 7.6875 C-0.22947266 8.89986328 -0.22947266 8.89986328 -0.52734375 10.13671875 C-0.68332031 10.75160156 -0.83929688 11.36648437 -1 12 C-1.66 11.01 -2.32 10.02 -3 9 C-2.5390625 6.73828125 -2.5390625 6.73828125 -1.625 4.3125 C-1.32851563 3.50425781 -1.03203125 2.69601563 -0.7265625 1.86328125 C-0.48679687 1.24839844 -0.24703125 0.63351563 0 0 Z " fill="#6EC9E1" transform="translate(342,192)"/>
<path d="M0 0 C0.66 0 1.32 0 2 0 C2.625 2.375 2.625 2.375 3 5 C2.34 5.66 1.68 6.32 1 7 C1 6.34 1 5.68 1 5 C0.01 4.67 -0.98 4.34 -2 4 C-1.34 2.68 -0.68 1.36 0 0 Z " fill="#5E16EE" transform="translate(307,101)"/>
<path d="M0 0 C0.66 0 1.32 0 2 0 C2 0.99 2 1.98 2 3 C2.66 3.33 3.32 3.66 4 4 C3.67 4.99 3.34 5.98 3 7 C1.68 6.01 0.36 5.02 -1 4 C-0.67 2.68 -0.34 1.36 0 0 Z " fill="#6324E1" transform="translate(304,102)"/>
<path d="M0 0 C0.33 0.66 0.66 1.32 1 2 C1.99 2.33 2.98 2.66 4 3 C3.34 3.66 2.68 4.32 2 5 C1.34 4.67 0.68 4.34 0 4 C-0.66 4.99 -1.32 5.98 -2 7 C-2.33 6.34 -2.66 5.68 -3 5 C-1.5625 2.375 -1.5625 2.375 0 0 Z " fill="#5712DF" transform="translate(331,183)"/>
<path d="M0 0 C1.98 0.495 1.98 0.495 4 1 C3.67 2.32 3.34 3.64 3 5 C1.68 4.34 0.36 3.68 -1 3 C-0.67 2.01 -0.34 1.02 0 0 Z " fill="#5A12EA" transform="translate(332,148)"/>
</svg>
